<mxfile host="app.diagrams.net" modified="2022-06-14T07:03:32.370Z" agent="5.0 (Windows NT 10.0; Win64; x64) AppleWebKit/537.36 (KHTML, like Gecko) Chrome/102.0.5005.115 Safari/537.36" etag="ON2ovi0w7DvLgCoOVcYI" version="20.0.1" type="github">
  <diagram id="qvJiIU98dVkTYcuBTXtH" name="Page-1">
    <mxGraphModel dx="1422" dy="762" grid="1" gridSize="10" guides="1" tooltips="1" connect="1" arrows="1" fold="1" page="1" pageScale="1" pageWidth="827" pageHeight="1169" math="0" shadow="0">
      <root>
        <mxCell id="0" />
        <mxCell id="1" parent="0" />
        <mxCell id="b3XUmrWyPkc1vhzOh8Uj-4" value="" style="edgeStyle=orthogonalEdgeStyle;rounded=0;orthogonalLoop=1;jettySize=auto;html=1;endArrow=none;endFill=0;" edge="1" parent="1" source="b3XUmrWyPkc1vhzOh8Uj-1" target="b3XUmrWyPkc1vhzOh8Uj-3">
          <mxGeometry relative="1" as="geometry" />
        </mxCell>
        <mxCell id="b3XUmrWyPkc1vhzOh8Uj-1" value="러닝스페이스&lt;br&gt;대시보드" style="rounded=0;whiteSpace=wrap;html=1;" vertex="1" parent="1">
          <mxGeometry x="320" y="120" width="120" height="60" as="geometry" />
        </mxCell>
        <mxCell id="b3XUmrWyPkc1vhzOh8Uj-6" value="" style="edgeStyle=orthogonalEdgeStyle;rounded=0;orthogonalLoop=1;jettySize=auto;html=1;endArrow=none;endFill=0;" edge="1" parent="1" source="b3XUmrWyPkc1vhzOh8Uj-3" target="b3XUmrWyPkc1vhzOh8Uj-5">
          <mxGeometry relative="1" as="geometry" />
        </mxCell>
        <mxCell id="b3XUmrWyPkc1vhzOh8Uj-8" value="" style="edgeStyle=orthogonalEdgeStyle;rounded=0;orthogonalLoop=1;jettySize=auto;html=1;endArrow=none;endFill=0;" edge="1" parent="1" source="b3XUmrWyPkc1vhzOh8Uj-3" target="b3XUmrWyPkc1vhzOh8Uj-7">
          <mxGeometry relative="1" as="geometry" />
        </mxCell>
        <mxCell id="b3XUmrWyPkc1vhzOh8Uj-3" value="진행 중인 챕터 목록" style="whiteSpace=wrap;html=1;rounded=0;" vertex="1" parent="1">
          <mxGeometry x="320" y="260" width="120" height="60" as="geometry" />
        </mxCell>
        <mxCell id="b3XUmrWyPkc1vhzOh8Uj-5" value="DHMS 확인" style="whiteSpace=wrap;html=1;rounded=0;fillColor=#1ba1e2;strokeColor=#006EAF;fontColor=#ffffff;" vertex="1" parent="1">
          <mxGeometry x="520" y="260" width="120" height="60" as="geometry" />
        </mxCell>
        <mxCell id="b3XUmrWyPkc1vhzOh8Uj-10" value="" style="edgeStyle=orthogonalEdgeStyle;rounded=0;orthogonalLoop=1;jettySize=auto;html=1;endArrow=none;endFill=0;" edge="1" parent="1" source="b3XUmrWyPkc1vhzOh8Uj-7" target="b3XUmrWyPkc1vhzOh8Uj-9">
          <mxGeometry relative="1" as="geometry" />
        </mxCell>
        <mxCell id="b3XUmrWyPkc1vhzOh8Uj-7" value="마감된 챕터 목록" style="whiteSpace=wrap;html=1;rounded=0;" vertex="1" parent="1">
          <mxGeometry x="320" y="400" width="120" height="60" as="geometry" />
        </mxCell>
        <mxCell id="b3XUmrWyPkc1vhzOh8Uj-9" value="yyyy-mm-dd 확인" style="whiteSpace=wrap;html=1;rounded=0;fillColor=#1ba1e2;strokeColor=#006EAF;fontColor=#ffffff;" vertex="1" parent="1">
          <mxGeometry x="520" y="400" width="120" height="60" as="geometry" />
        </mxCell>
        <mxCell id="b3XUmrWyPkc1vhzOh8Uj-11" value="&lt;font style=&quot;font-size: 24px;&quot;&gt;&lt;b&gt;시나리오 1&lt;/b&gt;&lt;/font&gt;" style="text;html=1;strokeColor=none;fillColor=none;align=center;verticalAlign=middle;whiteSpace=wrap;rounded=0;" vertex="1" parent="1">
          <mxGeometry x="70" y="90" width="140" height="30" as="geometry" />
        </mxCell>
        <mxCell id="b3XUmrWyPkc1vhzOh8Uj-12" value="&lt;span style=&quot;font-size: 12px;&quot;&gt;교사인 은지는 대시보드에서 러닝스페이스 관련 정보를 얻고 싶다.&lt;/span&gt;" style="text;html=1;strokeColor=none;fillColor=none;align=left;verticalAlign=middle;whiteSpace=wrap;rounded=0;fontSize=24;" vertex="1" parent="1">
          <mxGeometry x="80" y="150" width="160" height="30" as="geometry" />
        </mxCell>
        <mxCell id="b3XUmrWyPkc1vhzOh8Uj-13" value="&lt;font style=&quot;font-size: 24px;&quot;&gt;&lt;b&gt;시나리오 2&lt;/b&gt;&lt;/font&gt;" style="text;html=1;strokeColor=none;fillColor=none;align=center;verticalAlign=middle;whiteSpace=wrap;rounded=0;" vertex="1" parent="1">
          <mxGeometry x="70" y="230" width="140" height="30" as="geometry" />
        </mxCell>
        <mxCell id="b3XUmrWyPkc1vhzOh8Uj-14" value="&lt;span style=&quot;font-size: 12px;&quot;&gt;은지는 진행 중인 챕터의 제출 기한이 얼마나 남았는지 확인하고 싶다.&lt;/span&gt;" style="text;html=1;strokeColor=none;fillColor=none;align=left;verticalAlign=middle;whiteSpace=wrap;rounded=0;fontSize=24;" vertex="1" parent="1">
          <mxGeometry x="80" y="260" width="190" height="60" as="geometry" />
        </mxCell>
        <mxCell id="b3XUmrWyPkc1vhzOh8Uj-15" value="&lt;font style=&quot;font-size: 24px;&quot;&gt;&lt;b&gt;시나리오 3&lt;/b&gt;&lt;/font&gt;" style="text;html=1;strokeColor=none;fillColor=none;align=center;verticalAlign=middle;whiteSpace=wrap;rounded=0;" vertex="1" parent="1">
          <mxGeometry x="70" y="370" width="140" height="30" as="geometry" />
        </mxCell>
        <mxCell id="b3XUmrWyPkc1vhzOh8Uj-16" value="&lt;span style=&quot;font-size: 12px;&quot;&gt;은지는 과거 자신이 진행한 챕터의 마감 날짜를 확인하고 싶다.&lt;/span&gt;" style="text;html=1;strokeColor=none;fillColor=none;align=left;verticalAlign=middle;whiteSpace=wrap;rounded=0;fontSize=24;" vertex="1" parent="1">
          <mxGeometry x="80" y="415" width="185" height="30" as="geometry" />
        </mxCell>
      </root>
    </mxGraphModel>
  </diagram>
</mxfile>
